<svg viewBox="0 0 288.92 288" xmlns="http://www.w3.org/2000/svg" xmlns:xlink="http://www.w3.org/1999/xlink" id="Layer_1" overflow="hidden"><defs/><path d="M279.39 140.52 275.07 139.73C270.074 138.798 266.279 134.702 265.73 129.65 265.277 125.87 264.663 122.147 263.89 118.48 262.79 113.493 265.074 108.373 269.52 105.86L273.29 103.76C275.669 102.424 276.514 99.4123 275.177 97.0336 274.159 95.2197 272.112 94.2386 270.06 94.58L265.83 95.3C260.779 96.1399 255.772 93.5836 253.49 89 251.83 85.6667 250 82.3967 248 79.19 245.255 74.876 245.661 69.2728 249 65.4L251.83 62.12C253.609 60.0519 253.376 56.9328 251.307 55.1534 249.727 53.7937 247.464 53.5723 245.65 54.6L241.87 56.76C237.394 59.2893 231.787 58.5732 228.09 55 225.35 52.4267 222.5 49.9833 219.54 47.67 215.489 44.5622 213.946 39.1705 215.74 34.39L217.29 30.33C218.253 27.7773 216.964 24.9273 214.411 23.9644 212.462 23.2293 210.262 23.7956 208.91 25.38L206.12 28.67C202.789 32.5504 197.312 33.7967 192.63 31.74 189.21 30.2733 185.713 28.9567 182.14 27.79 177.255 26.24 173.953 21.6846 174 16.56L174.07 12.31C174.108 9.58198 171.927 7.33964 169.199 7.3016 167.11 7.27246 165.228 8.56123 164.5 10.52L163 14.6C161.279 19.3207 156.678 22.3642 151.66 22.1 149.287 21.9667 146.903 21.9 144.51 21.9 143.05 21.9 141.6 21.9 140.16 21.97 135.05 22.2098 130.386 19.0733 128.68 14.25L127.25 10.14C126.345 7.56622 123.525 6.21349 120.951 7.11859 118.99 7.80816 117.671 9.65147 117.65 11.73L117.65 15.98C117.594 21.1272 114.18 25.6329 109.24 27.08 105.64 28.16 102.12 29.41 98.67 30.8 93.9492 32.763 88.5 31.4067 85.25 27.46L82.53 24.11C80.8689 21.9457 77.7678 21.5377 75.6035 23.1988 73.8673 24.5312 73.2148 26.8472 74 28.89L75.44 33C77.1399 37.8161 75.4869 43.1774 71.37 46.2 68.3567 48.4533 65.4567 50.84 62.67 53.36 58.9078 56.8155 53.3269 57.4004 48.93 54.8L45.2 52.55C42.8581 51.1504 39.825 51.9143 38.4253 54.2562 37.3522 56.0517 37.5264 58.3285 38.86 59.94L41.63 63.27C44.8736 67.2249 45.1497 72.8358 42.31 77.09 40.26 80.21 38.31 83.44 36.58 86.76 34.2121 91.3011 29.1542 93.7611 24.12 92.82L19.9 92C17.221 91.4839 14.6308 93.2372 14.1147 95.9163 13.7176 97.9772 14.6662 100.064 16.48 101.12L20.21 103.3C24.5936 105.895 26.7686 111.049 25.57 116 24.7167 119.647 24.03 123.357 23.51 127.13 22.8752 132.172 19.0111 136.203 14 137.05L9.67 137.75C6.97828 138.195 5.15708 140.738 5.60224 143.43 5.94131 145.48 7.52719 147.099 9.57 147.48L13.89 148.27C18.8859 149.202 22.6809 153.298 23.23 158.35 23.6567 162.117 24.2467 165.84 25 169.52 26.1037 174.507 23.8184 179.63 19.37 182.14L15.6 184.24C13.2213 185.576 12.3763 188.588 13.7125 190.966 14.7315 192.78 16.7777 193.761 18.83 193.42L23.06 192.7C28.1209 191.846 33.1446 194.404 35.43 199 37.1433 202.333 39 205.603 41 208.81 43.7451 213.124 43.3388 218.727 40 222.6L37.17 225.88C35.3905 227.948 35.6245 231.067 37.6926 232.847 39.2727 234.206 41.5363 234.428 43.35 233.4L47.13 231.24C51.587 228.751 57.1469 229.465 60.83 233 63.57 235.567 66.42 238.01 69.38 240.33 73.4314 243.438 74.9742 248.829 73.18 253.61L71.63 257.67C70.7072 260.237 72.0404 263.067 74.6079 263.99 76.522 264.678 78.6622 264.122 80 262.59L82.79 259.3C86.1212 255.42 91.5977 254.173 96.28 256.23 99.7 257.697 103.197 259.013 106.77 260.18 111.701 261.701 115.048 266.28 115 271.44L114.93 275.69C114.892 278.418 117.073 280.66 119.801 280.698 121.89 280.728 123.772 279.439 124.5 277.48L126 273.4C127.721 268.679 132.322 265.636 137.34 265.9 139.713 266.027 142.097 266.093 144.49 266.1 145.95 266.1 147.4 266.1 148.84 266.03 153.949 265.797 158.609 268.931 160.32 273.75L161.75 277.86C162.655 280.434 165.475 281.786 168.049 280.881 170.01 280.192 171.329 278.349 171.35 276.27L171.35 272.02C171.406 266.873 174.82 262.367 179.76 260.92 183.36 259.84 186.883 258.6 190.33 257.2 195.051 255.237 200.5 256.593 203.75 260.54L206.47 263.89C208.196 266.003 211.309 266.316 213.421 264.589 215.037 263.269 215.649 261.076 214.95 259.11L213.48 255C211.78 250.184 213.433 244.823 217.55 241.8 220.557 239.553 223.457 237.167 226.25 234.64 230.019 231.186 235.605 230.609 240 233.22L243.73 235.45C246.072 236.85 249.105 236.086 250.505 233.744 251.578 231.948 251.404 229.671 250.07 228.06L247.3 224.73C244.056 220.775 243.78 215.164 246.62 210.91 248.62 207.79 250.62 204.56 252.35 201.24 254.718 196.699 259.776 194.239 264.81 195.18L269 196C271.679 196.516 274.269 194.763 274.785 192.084 275.182 190.023 274.234 187.936 272.42 186.88L268.69 184.71C264.315 182.103 262.15 176.949 263.35 172 264.197 168.353 264.883 164.643 265.41 160.87 266.074 155.822 269.974 151.809 275 151L279.33 150.3C282.033 149.93 283.924 147.438 283.554 144.735 283.256 142.561 281.56 140.844 279.39 140.52Z" fill="#0066AD"/><path d="M237.8 152.28 213.89 152.28C212.9 154.54 211.287 156.472 209.24 157.85 207.191 159.189 204.788 159.885 202.34 159.85 198.821 159.97 195.463 158.369 193.34 155.56 191.113 152.693 190 148.84 190 144 190 139.16 191.11 135.32 193.32 132.45 195.443 129.641 198.801 128.04 202.32 128.16 204.768 128.12 207.172 128.817 209.22 130.16 211.27 131.53 212.884 133.46 213.87 135.72L237.8 135.72C236.905 130.316 234.792 125.186 231.62 120.72 228.52 116.411 224.368 112.968 219.56 110.72 214.292 108.301 208.546 107.098 202.75 107.2 196.116 107.037 189.559 108.641 183.75 111.85 178.431 114.879 174.113 119.398 171.33 124.85L169 129.32 169.12 107.83C169.12 107.493 168.847 107.22 168.51 107.22L147.1 107.22C146.763 107.214 146.486 107.483 146.48 107.82 146.48 107.823 146.48 107.827 146.48 107.83L146.35 142.83C146.362 143.167 146.099 143.449 145.762 143.461 145.542 143.469 145.335 143.358 145.22 143.17L122.65 107.5C122.538 107.322 122.34 107.216 122.13 107.22L51.87 107.22C51.5331 107.214 51.2556 107.483 51.2501 107.82 51.25 107.823 51.25 107.827 51.25 107.83L51.12 179.66C51.12 179.997 51.393 180.27 51.7299 180.27 51.7333 180.27 51.7366 180.27 51.74 180.27L73.81 180.27 73.81 153 94.24 153 94.24 135.93 73.81 135.93 73.81 125.93 99.66 125.93 99.66 180.29 122.34 180.29 122.34 143.9 146.34 180.27 169 180.27 169 158.66 171.3 163.11C174.084 168.561 178.401 173.08 183.72 176.11 189.531 179.311 196.088 180.912 202.72 180.75 208.516 180.852 214.262 179.649 219.53 177.23 224.338 174.982 228.49 171.539 231.59 167.23 234.762 162.764 236.875 157.634 237.77 152.23Z" id="_Path_" fill="#FFFFFF"/></svg>