<svg viewBox="0 0 96 96" xmlns="http://www.w3.org/2000/svg" xmlns:xlink="http://www.w3.org/1999/xlink" id="Icons_Warehouse_M" overflow="hidden"><style>
.MsftOfcResponsive_Fill_002060 {
 fill:#002060; 
}
</style>
<g id="Icons"><path d="M48 11 10 26.6 10 86.024 17 86.024 17 36.01 79 36.01 79 86.024 86 86.024 86 26.6ZM84 84.024 81 84.024 81 34.01 15 34.01 15 84.024 12 84.024 12 27.939 48 13.165 84 27.939Z" class="MsftOfcResponsive_Fill_002060" fill="#002060"/><rect x="20" y="39" width="56" height="2" class="MsftOfcResponsive_Fill_002060" fill="#002060"/><rect x="20" y="44" width="56" height="2" class="MsftOfcResponsive_Fill_002060" fill="#002060"/><rect x="20" y="49" width="56" height="2" class="MsftOfcResponsive_Fill_002060" fill="#002060"/><path d="M61 58 48 58 48 71 35 71 35 86 76 86 76 58 61 58ZM50 60 61 60 61 71 50 71ZM48 84 37 84 37 73 48 73ZM61 84 50 84 50 73 61 73ZM74 84 63 84 63 73 74 73ZM74 60 74 71 63 71 63 60Z" class="MsftOfcResponsive_Fill_002060" fill="#002060"/><rect x="52" y="62" width="3" height="2" class="MsftOfcResponsive_Fill_002060" fill="#002060"/><rect x="65" y="62" width="3" height="2" class="MsftOfcResponsive_Fill_002060" fill="#002060"/><rect x="52" y="75" width="3" height="2" class="MsftOfcResponsive_Fill_002060" fill="#002060"/><rect x="39" y="75" width="3" height="2" class="MsftOfcResponsive_Fill_002060" fill="#002060"/><rect x="65" y="75" width="3" height="2" class="MsftOfcResponsive_Fill_002060" fill="#002060"/></g></svg>