<svg viewBox="0 0 512 512" xmlns="http://www.w3.org/2000/svg" xmlns:xlink="http://www.w3.org/1999/xlink" id="Capa_1" overflow="hidden"><style>
.MsftOfcThm_Text2_lumMod_20_lumOff_80_Fill {
 fill:#F2F2F2; 
}
</style>
<g><g><path d="M446.575 0 65.425 0C29.349 0 0 29.35 0 65.426L0 446.575C0 482.65 29.349 512 65.425 512L446.575 512C482.651 512 512 482.65 512 446.574L512 65.426C512 29.35 482.651 0 446.575 0ZM481.842 446.575C481.842 466.022 466.021 481.842 446.575 481.842L65.425 481.842C45.978 481.842 30.157 466.021 30.157 446.575L30.157 391.568 129.412 307.117C133.034 304.035 138.318 304.006 141.974 307.042L204.148 358.67C210.143 363.647 218.943 363.239 224.452 357.724L372.181 209.77C374.851 207.095 377.964 206.835 379.589 206.918 381.209 207.001 384.284 207.579 386.667 210.514L481.843 327.704 481.843 446.575ZM481.842 279.865 410.076 191.499C402.959 182.735 392.41 177.377 381.134 176.798 369.866 176.228 358.817 180.47 350.84 188.46L212.832 326.681 161.242 283.842C146.283 271.42 124.679 271.549 109.869 284.15L30.157 351.972 30.157 65.426C30.157 45.979 45.978 30.158 65.425 30.158L446.575 30.158C466.022 30.158 481.842 45.979 481.842 65.426L481.842 279.865Z" class="MsftOfcThm_Text2_lumMod_20_lumOff_80_Fill" stroke="none" stroke-width="1" stroke-linecap="butt" fill="#F2F2F2" fill-opacity="1"/></g></g><g><g><path d="M161.174 62.995C121.079 62.995 88.461 95.615 88.461 135.708 88.461 175.802 121.08 208.421 161.174 208.421 201.268 208.421 233.887 175.802 233.887 135.708 233.887 95.614 201.269 62.995 161.174 62.995ZM161.174 178.264C137.708 178.264 118.618 159.173 118.618 135.708 118.618 112.242 137.708 93.152 161.174 93.152 184.64 93.152 203.73 112.243 203.73 135.708 203.73 159.173 184.64 178.264 161.174 178.264Z" class="MsftOfcThm_Text2_lumMod_20_lumOff_80_Fill" stroke="none" stroke-width="1" stroke-linecap="butt" fill="#F2F2F2" fill-opacity="1"/></g></g><g></g><g></g><g></g><g></g><g></g><g></g><g></g><g></g><g></g><g></g><g></g><g></g><g></g><g></g><g></g></svg>